<svg xmlns="http://www.w3.org/2000/svg" viewBox="0 0 200 231"><path fill="#d1e7e9" d="m100 0 100 57.75v115.5L100 231 0 173.25V57.75Z"/><g fill="#c5e0e3"><ellipse cx="50" cy="96" rx="22" ry="6"/><ellipse cx="150" cy="150" rx="28" ry="6"/></g><path fill="none" stroke="#a7ccd1" stroke-linecap="round" stroke-linejoin="round" stroke-width="3" d="M40 62q10-8 20 0t20 0m40-12q10-8 20 0t20 0M18 124q10-8 20 0t20 0m86-6q10-8 20 0t20 0M52 180q10-8 20 0t20 0m22 14q10-8 20 0t20 0"/><path fill="none" stroke="#e9f5f6" stroke-linecap="round" stroke-width="3" d="M44 54q6-4 12-2m68-10q6-4 12-2M22 116q6-4 12-2m114-4q6-4 12-2M56 172q6-4 12-2m50 16q6-4 12-2"/></svg>