<svg xmlns="http://www.w3.org/2000/svg" viewBox="0 0 80 112"><rect width="77" height="109" x="1.5" y="1.5" fill="#fcfdfc" stroke="#49665b" stroke-width="2.5" rx="8"/><rect width="66" height="98" x="7" y="7" fill="none" stroke="#3f8f86" stroke-width="1.5" rx="4.5"/><rect width="20" height="3" x="30" y="12" fill="#3f8f86" rx="1.5"/><circle cx="40" cy="57" r="27" fill="#e3f1ee"/><path fill="none" stroke="#3f8f86" stroke-linecap="round" stroke-width="2" d="m24 49 4 5m5-11 2 8m12-8-2 8m9-2-4 5"/><rect width="12" height="8" x="13" y="39" fill="#c0613f" stroke="#6e2f1f" stroke-linejoin="round" stroke-width="2" rx="1.5" transform="rotate(-15 19 43)"/><path fill="#4f8a5b" stroke="#2c5236" stroke-linejoin="round" stroke-width="2" d="m30 29 6 10H24z"/><path fill="#8aa0aa" stroke="#33474f" stroke-linejoin="round" stroke-width="2" d="m50 28 6 6-6 6-6-6z"/><circle cx="62" cy="44" r="5" fill="#eef2e4" stroke="#6b7a5a" stroke-width="2"/><rect width="28" height="22" x="26" y="57" fill="#c98a4f" stroke="#6b4221" stroke-width="2.5" rx="3"/><path fill="none" stroke="#6b4221" stroke-width="1.5" d="M27 64.5h26m-26 7h26"/><rect width="8" height="2" x="29" y="60" fill="#e3b27f" rx="1"/></svg>