<svg xmlns="http://www.w3.org/2000/svg" viewBox="0 0 64 64"><g fill="#fff"><path d="M36 22h22v34H36z"/><path d="M33 23 47 8l14 15z"/></g><path fill="#dde2df" d="m47 8 14 15H47z"/><path fill="#e7ebe9" d="M52 23h6v33h-6z"/><path fill="none" stroke="#1b2320" stroke-linejoin="round" stroke-width="3" d="M36 23v33h22V23m-25 0L47 8l14 15z"/><path fill="#fff" d="M10 37h44v19H10zm-4 0 26-19 26 19z"/><path fill="#dde2df" d="m32 18 26 19H32z"/><path fill="#e7ebe9" d="M46 37h8v19h-8z"/><path fill="none" stroke="#1b2320" stroke-linejoin="round" stroke-width="3" d="M10 37v19h44V37M6 37l26-19 26 19z"/></svg>