<svg xmlns="http://www.w3.org/2000/svg" viewBox="0 0 100 100" xmlns:c2pa="http://c2pa.org/manifest"><metadata><c2pa:manifest>AAAWgmp1bWIAAAAeanVtZGMycGEAEQAQgAAAqgA4m3EDYzJwYQAAABZcanVtYgAAAEdqdW1kYzJtYQARABCAAACqADibcQN1cm46YzJwYTozNDhhNmEzYi1jODk0LTRiOWItODkxZi1mYTkzZmFkN2JhNzkAAAADl2p1bWIAAAApanVtZGMyYXMAEQAQgAAAqgA4m3EDYzJwYS5hc3NlcnRpb25zAAAAALxqdW1iAAAARGp1bWRjYm9yABEAEIAAAKoAOJtxE2MycGEuaW5ncmVkaWVudC52MwAAAAAYYzJzaBM7mMAkXQiru3+WX1OzJ4AAAABwY2JvcqNpZGM6Zm9ybWF0bWltYWdlL3N2Zyt4bWxqaW5zdGFuY2VJRHgseG1wOmlpZDowMmNhMzQ1MC03NjA1LTQ5MDctOTU5MC00MWNlMmQ0MjBlZmFscmVsYXRpb25zaGlwaHBhcmVudE9mAAAB4mp1bWIAAABBanVtZGNib3IAEQAQgAAAqgA4m3ETYzJwYS5hY3Rpb25zLnYyAAAAABhjMnNo0th2OhXx04YL8lGkEXcxPAAAAZljYm9yomdhY3Rpb25zgqJmYWN0aW9ua2MycGEub3BlbmVkanBhcmFtZXRlcnOha2luZ3JlZGllbnRzgaJjdXJseC1zZWxmI2p1bWJmPWMycGEuYXNzZXJ0aW9ucy9jMnBhLmluZ3JlZGllbnQudjNkaGFzaFggd/iAbt8B8him/faNeOVxCCefuSrNVO90Wtrj4bV976WkZmFjdGlvbngdY29tLmFudGhyb3BpYy5jbGF1ZGUucHJvdmlkZWRqcGFyYW1ldGVyc6F4H2NvbS5hbnRocm9waWMub3JpZ2luLWNvbmZpZGVuY2VndW5rbm93bmtkZXNjcmlwdGlvbnhmQ2xhdWRlIHByb3ZpZGVkIHRoaXMgZmlsZSBhdCB0aGUgcmVxdWVzdCBvZiBhIHVzZXIgYW5kIG1heSBoYXZlIGNyZWF0ZWQgb3IgbW9kaWZpZWQgdGhlIGZpbGUgY29udGVudHMubXNvZnR3YXJlQWdlbnShZG5hbWVmQ2xhdWRlcmFsbEFjdGlvbnNJbmNsdWRlZPUAAADIanVtYgAAAEBqdW1kY2JvcgARABCAAACqADibcRNjMnBhLmhhc2guZGF0YQAAAAAYYzJzaGcqwqY4wv8pjlB+Q3/3evgAAACAY2JvcqVjYWxnZnNoYTI1NmNwYWRNAAAAAAAAAAAAAAAAAGRoYXNoWCDoqVWcfDmd89dPQEgV64IJJRiFpT1oZ89feeH9SfyFvmRuYW1lbmp1bWJmIG1hbmlmZXN0amV4Y2x1c2lvbnOBomVzdGFydBh9Zmxlbmd0aBkeBAAAAj5qdW1iAAAAJ2p1bWRjMmNsABEAEIAAAKoAOJtxA2MycGEuY2xhaW0udjIAAAACD2Nib3KlY2FsZ2ZzaGEyNTZpc2lnbmF0dXJleE1zZWxmI2p1bWJmPS9jMnBhL3VybjpjMnBhOjM0OGE2YTNiLWM4OTQtNGI5Yi04OTFmLWZhOTNmYWQ3YmE3OS9jMnBhLnNpZ25hdHVyZWppbnN0YW5jZUlEeCx4bXA6aWlkOjAxMjA5YTE5LWRhNjMtNDAyMC05YTlhLTkzYjdmMzE3ZDgzMXJjcmVhdGVkX2Fzc2VydGlvbnODomN1cmx4LXNlbGYjanVtYmY9YzJwYS5hc3NlcnRpb25zL2MycGEuaW5ncmVkaWVudC52M2RoYXNoWCB3+IBu3wHyGKb99o145XEIJ5+5Ks1U73Ra2uPhtX3vpaJjdXJseCpzZWxmI2p1bWJmPWMycGEuYXNzZXJ0aW9ucy9jMnBhLmFjdGlvbnMudjJkaGFzaFgg0x9gKxvXMTKEijaqZYF5XSZLoCYcsnuQSmU2ZBfvFCmiY3VybHgpc2VsZiNqdW1iZj1jMnBhLmFzc2VydGlvbnMvYzJwYS5oYXNoLmRhdGFkaGFzaFgggzMJdFlEXp/69z9mzlpWDIbmgmeZgmi+VRQC18E2i4N0Y2xhaW1fZ2VuZXJhdG9yX2luZm+jZG5hbWVvQW50aHJvcGljIEZpbGVzZ3ZlcnNpb25lMS4wLjBrc3BlY1ZlcnNpb25lMi40LjAAABA4anVtYgAAAChqdW1kYzJjcwARABCAAACqADibcQNjMnBhLnNpZ25hdHVyZQAAABAIY2JvctKEWQISogEmGCFZAgowggIGMIIBjaADAgECAhRA5aAK7sI50L64g/oGQgU9Z1UTADAKBggqhkjOPQQDAzBJMRcwFQYDVQQKEw5BbnRocm9waWMsIFBCQzEuMCwGA1UEAxMlQW50aHJvcGljIENvbnRlbnQgQ3JlZGVudGlhbHMgUm9vdCBDQTAeFw0yNjA4MDcxODQzNTZaFw0yODA4MDYxOTQzNTZaMEQxFzAVBgNVBAoTDkFudGhyb3BpYywgUEJDMSkwJwYDVQQDEyBBbnRocm9waWMgQ2xhdWRlIENvbnRlbnQgU2lnbmluZzBZMBMGByqGSM49AgEGCCqGSM49AwEHA0IABJh6CmvLUBgFFNU0vUKlOVtE6djd17L5SuwX0LemFisBM3dkd/3cyjxFA3Qo5S46fX0/ihY0VZ7mfb9KF703t5OjWDBWMA4GA1UdDwEB/wQEAwIHgDAVBgNVHSUEDjAMBgorBgEEAYPoXgIBMAwGA1UdEwEB/wQCMAAwHwYDVR0jBBgwFoAUzlHiBIFOZFsj+OPEz5o+nMHXXMIwCgYIKoZIzj0EAwMDZwAwZAIwMXMdFJ4BetLLVY7ORuE9noqbbAZOZn/aArXyTwFAZfKrPzxF2vPoJNf1+UCdg1XGAjBwX1zd9WGqYkqmL5SFqw1QySjr1zJfpJM9+1rdDwSPLMOPOjKuiXjoU/pUUeG9RwmhY3BhZFkNngAAAAAAAAAAAAAAAAAAAAAAAAAAAAAAAAAAAAAAAAAAAAAAAAAAAAAAAAAAAAAAAAAAAAAAAAAAAAAAAAAAAAAAAAAAAAAAAAAAAAAAAAAAAAAAAAAAAAAAAAAAAAAAAAAAAAAAAAAAAAAAAAAAAAAAAAAAAAAAAAAAAAAAAAAAAAAAAAAAAAAAAAAAAAAAAAAAAAAAAAAAAAAAAAAAAAAAAAAAAAAAAAAAAAAAAAAAAAAAAAAAAAAAAAAAAAAAAAAAAAAAAAAAAAAAAAAAAAAAAAAAAAAAAAAAAAAAAAAAAAAAAAAAAAAAAAAAAAAAAAAAAAAAAAAAAAAAAAAAAAAAAAAAAAAAAAAAAAAAAAAAAAAAAAAAAAAAAAAAAAAAAAAAAAAAAAAAAAAAAAAAAAAAAAAAAAAAAAAAAAAAAAAAAAAAAAAAAAAAAAAAAAAAAAAAAAAAAAAAAAAAAAAAAAAAAAAAAAAAAAAAAAAAAAAAAAAAAAAAAAAAAAAAAAAAAAAAAAAAAAAAAAAAAAAAAAAAAAAAAAAAAAAAAAAAAAAAAAAAAAAAAAAAAAAAAAAAAAAAAAAAAAAAAAAAAAAAAAAAAAAAAAAAAAAAAAAAAAAAAAAAAAAAAAAAAAAAAAAAAAAAAAAAAAAAAAAAAAAAAAAAAAAAAAAAAAAAAAAAAAAAAAAAAAAAAAAAAAAAAAAAAAAAAAAAAAAAAAAAAAAAAAAAAAAAAAAAAAAAAAAAAAAAAAAAAAAAAAAAAAAAAAAAAAAAAAAAAAAAAAAAAAAAAAAAAAAAAAAAAAAAAAAAAAAAAAAAAAAAAAAAAAAAAAAAAAAAAAAAAAAAAAAAAAAAAAAAAAAAAAAAAAAAAAAAAAAAAAAAAAAAAAAAAAAAAAAAAAAAAAAAAAAAAAAAAAAAAAAAAAAAAAAAAAAAAAAAAAAAAAAAAAAAAAAAAAAAAAAAAAAAAAAAAAAAAAAAAAAAAAAAAAAAAAAAAAAAAAAAAAAAAAAAAAAAAAAAAAAAAAAAAAAAAAAAAAAAAAAAAAAAAAAAAAAAAAAAAAAAAAAAAAAAAAAAAAAAAAAAAAAAAAAAAAAAAAAAAAAAAAAAAAAAAAAAAAAAAAAAAAAAAAAAAAAAAAAAAAAAAAAAAAAAAAAAAAAAAAAAAAAAAAAAAAAAAAAAAAAAAAAAAAAAAAAAAAAAAAAAAAAAAAAAAAAAAAAAAAAAAAAAAAAAAAAAAAAAAAAAAAAAAAAAAAAAAAAAAAAAAAAAAAAAAAAAAAAAAAAAAAAAAAAAAAAAAAAAAAAAAAAAAAAAAAAAAAAAAAAAAAAAAAAAAAAAAAAAAAAAAAAAAAAAAAAAAAAAAAAAAAAAAAAAAAAAAAAAAAAAAAAAAAAAAAAAAAAAAAAAAAAAAAAAAAAAAAAAAAAAAAAAAAAAAAAAAAAAAAAAAAAAAAAAAAAAAAAAAAAAAAAAAAAAAAAAAAAAAAAAAAAAAAAAAAAAAAAAAAAAAAAAAAAAAAAAAAAAAAAAAAAAAAAAAAAAAAAAAAAAAAAAAAAAAAAAAAAAAAAAAAAAAAAAAAAAAAAAAAAAAAAAAAAAAAAAAAAAAAAAAAAAAAAAAAAAAAAAAAAAAAAAAAAAAAAAAAAAAAAAAAAAAAAAAAAAAAAAAAAAAAAAAAAAAAAAAAAAAAAAAAAAAAAAAAAAAAAAAAAAAAAAAAAAAAAAAAAAAAAAAAAAAAAAAAAAAAAAAAAAAAAAAAAAAAAAAAAAAAAAAAAAAAAAAAAAAAAAAAAAAAAAAAAAAAAAAAAAAAAAAAAAAAAAAAAAAAAAAAAAAAAAAAAAAAAAAAAAAAAAAAAAAAAAAAAAAAAAAAAAAAAAAAAAAAAAAAAAAAAAAAAAAAAAAAAAAAAAAAAAAAAAAAAAAAAAAAAAAAAAAAAAAAAAAAAAAAAAAAAAAAAAAAAAAAAAAAAAAAAAAAAAAAAAAAAAAAAAAAAAAAAAAAAAAAAAAAAAAAAAAAAAAAAAAAAAAAAAAAAAAAAAAAAAAAAAAAAAAAAAAAAAAAAAAAAAAAAAAAAAAAAAAAAAAAAAAAAAAAAAAAAAAAAAAAAAAAAAAAAAAAAAAAAAAAAAAAAAAAAAAAAAAAAAAAAAAAAAAAAAAAAAAAAAAAAAAAAAAAAAAAAAAAAAAAAAAAAAAAAAAAAAAAAAAAAAAAAAAAAAAAAAAAAAAAAAAAAAAAAAAAAAAAAAAAAAAAAAAAAAAAAAAAAAAAAAAAAAAAAAAAAAAAAAAAAAAAAAAAAAAAAAAAAAAAAAAAAAAAAAAAAAAAAAAAAAAAAAAAAAAAAAAAAAAAAAAAAAAAAAAAAAAAAAAAAAAAAAAAAAAAAAAAAAAAAAAAAAAAAAAAAAAAAAAAAAAAAAAAAAAAAAAAAAAAAAAAAAAAAAAAAAAAAAAAAAAAAAAAAAAAAAAAAAAAAAAAAAAAAAAAAAAAAAAAAAAAAAAAAAAAAAAAAAAAAAAAAAAAAAAAAAAAAAAAAAAAAAAAAAAAAAAAAAAAAAAAAAAAAAAAAAAAAAAAAAAAAAAAAAAAAAAAAAAAAAAAAAAAAAAAAAAAAAAAAAAAAAAAAAAAAAAAAAAAAAAAAAAAAAAAAAAAAAAAAAAAAAAAAAAAAAAAAAAAAAAAAAAAAAAAAAAAAAAAAAAAAAAAAAAAAAAAAAAAAAAAAAAAAAAAAAAAAAAAAAAAAAAAAAAAAAAAAAAAAAAAAAAAAAAAAAAAAAAAAAAAAAAAAAAAAAAAAAAAAAAAAAAAAAAAAAAAAAAAAAAAAAAAAAAAAAAAAAAAAAAAAAAAAAAAAAAAAAAAAAAAAAAAAAAAAAAAAAAAAAAAAAAAAAAAAAAAAAAAAAAAAAAAAAAAAAAAAAAAAAAAAAAAAAAAAAAAAAAAAAAAAAAAAAAAAAAAAAAAAAAAAAAAAAAAAAAAAAAAAAAAAAAAAAAAAAAAAAAAAAAAAAAAAAAAAAAAAAAAAAAAAAAAAAAAAAAAAAAAAAAAAAAAAAAAAAAAAAAAAAAAAAAAAAAAAAAAAAAAAAAAAAAAAAAAAAAAAAAAAAAAAAAAAAAAAAAAAAAAAAAAAAAAAAAAAAAAAAAAAAAAAAAAAAAAAAAAAAAAAAAAAAAAAAAAAAAAAAAAAAAAAAAAAAAAAAAAAAAAAAAAAAAAAAAAAAAAAAAAAAAAAAAAAAAAAAAAAAAAAAAAAAAAAAAAAAAAAAAAAAAAAAAAAAAAAAAAAAAAAAAAAAAAAAAAAAAAAAAAAAAAAAAAAAAAAAAAAAAAAAAAAAAAAAAAAAAAAAAAAAAAAAAAAAAAAAAAAAAAAAAAAAAAAAAAAAAAAAAAAAAAAAAAAAAAAAAAAAAAAAAAAAAAAAAAAAAAAAAAAAAAAAAAAAAAAAAAAAAAAAAAAAAAAAAAAAAAAAAAAAAAAAAAAAAAAAAAAAAAAAAAAAAAAAAAAAAAAAAAAAAAAAAAAAAAAAAAAAAAAAAAAAAAAAAAAAAAAAAAAAAAAAAAAAAAAAAAAAAAAAAAAAAAAAAAAAAAAAAAAAAAAAAAAAAAAAAAAAAAAAAAAAAAAAAAAAAAAAAAAAAAAAAAAAAAAAAAAAAAAAAAAAAAAAAAAAAAAAAAAAAAAAAAAAAAAAAAAAAAAAAAAAAAAAAAAAAAAAAAAAAAAAAAAAAAAAAAAAAAAAAAAAAAAAAAAAAAAAAAAAAAAAAAAAAAAAAAAAAAAAAAAAAAAAAAAAAAAAAAAAAAAAAAAAAAAAAAAAAAAAAAAAAAAAAAAAAAAAAAAAAAAAAAAAAAAAAAAAAAAAAAAAAAAAAAAAAAAAAAAAAAAAAAAAAAAAAAAAAAAAAAAAAAAAAAAAAAAAAAAAAAAAAAAAAAAAAAAAAAAAAAAAAAAAAAAAAAAAAAAAAAAAAAAAAAAAAAAAAAAAAAAAAAAAAAAAAAAAAAAAAAAAAAAAAAAAAAAAAAAAAAAAAAAAAAAAAAAAAAAAAAAAAAAAAAAAAAAAAAAAAAAAAAAAAAAAAAAAAAAAAAAAAAAAAAAAAAAAAAAAAAAAAAAAAAAAAAAAAAAAAAAAAAAAAAAAAAAAAAAAAAAAAAAAAAAAAAAAAAAAAAAAAAAAAAAAAAAAAAAAAAAAAAAAAAAAAAAAAAAAAAAAAAAAAAAAAAAAAAAAAAAAAAAAAAAAAAAAAAAAAAAAAAAAAAAAAAAAAAAAAAAAAAAAAAAAAAAAAAAAAAAAAAAAAAAAAAAAAAAAAAAAAAAAAAAAAAAAAAAAAAAAAAAAAAAAAAAAAAAAAAAAAAAAAAAAAAAAAAAAAAAAAAAAAAAAAAAAAAAAAAAAAAAAAAAAAAAAAAAAAAAAAAAAAAAAAAAAAAAAAAAAAAAAAAAAAAAAAAAAAAAAAAAAAAAAAAAAAAAAAAAAAAAAAAAAAAAAAAAAAAAAAAAAAAAAAAAAAAAAAAAAAAAAAAAAAAAAAAAAAAAAAAAAAAAAAAAAAAAAAAAAAAAAAAAAAAAAAAAAAAAAAAAAAAAAAAAAAAAAAAAAAAAAAAAAAAAAAAAAAAAAAAAAAAAAAAAAAAAAAAAAAAAAAAAAAAAAAAAAAAAAAAAAAAAAAAAAAAAAAAAAAAAAAAAAAAAAAAAAAAAAAAAAAAAAAAAAAPZYQIB13+e3Vu3dWzNFalYizADhVCYNnTZ0skDzF+t+RA8EGYZyYTEDG4javtROEVt1t22MbOxEexkaHcMkEW85hrY=</c2pa:manifest></metadata><polygon points="86.1,88.3 85.9,88.9 85.3,89.4 84.2,90 82.6,90.4 80.7,90.9 78.4,91.4 75.9,92.1 73.3,92.6 70.4,92.7 66.8,92.6 63.1,92.8 59.6,93.2 56,93.3 52.4,93.4 48.1,93.6 44.1,93.7 40.4,93.6 36.9,93 33.1,92.4 29.4,92.4 26.4,92.3 23.7,91.9 21.4,91.4 19.3,91 17.2,90.4 15.5,89.8 14.4,89.1 13.8,88.4 13.6,87.8 13.8,87.1 14.5,86.5 15.6,85.8 17.1,85.3 19.2,84.9 21.7,84.6 24.4,84.4 27,84.1 29.7,83.5 32.9,83.2 36.4,83.2 40.4,83 44.2,82.3 47.7,82.1 51.7,82.5 55.9,82.6 60.1,82.7 63.4,83.1 66.8,83.4 70.3,83.6 73.6,83.7 76.6,83.8 78.8,84.2 80.7,85 82.6,85.9 84.1,86.6 85.2,87.2 85.9,87.8" fill="rgba(59,42,46,.18)"></polygon><polygon points="44.8,49.3 48.1,51 51.3,52.9 55.4,54.9 58.9,56.5 62.1,58.3 65.7,60.1 69.7,62.1 73.2,63.6 69.9,65.4 66.4,67.5 62.6,69.2 58.6,70.8 54.9,72.8 51.8,71.2 48.2,69.1 44.4,66.9 40.7,65.3 37.7,63.8 34,62.1 30.1,59.9 26.8,58.2 30.2,56.6 33.8,54.5 37.4,52.5 41.1,50.9" fill="#9374ba" stroke="#68507a" stroke-width="0.9" stroke-linejoin="round"></polygon><polygon points="73.2,68.2 69.9,70.2 66.3,72.3 62.5,73.8 58.9,75.4 55.4,77.4 55.2,75 54.9,72.8 58.6,70.8 62.6,69.2 66.4,67.5 69.9,65.4 73.2,63.6 73.3,66" fill="#795d95" stroke="#5a4366" stroke-width="0.9" stroke-linejoin="round"></polygon><polygon points="55.4,77.4 51.7,76.1 48.7,74.3 44.7,72.1 40.8,70 37.4,68.7 34.1,67.3 30.2,65.3 26.3,62.9 26.4,60.4 26.8,58.2 30.1,59.9 34,62.1 37.7,63.8 40.7,65.3 44.4,66.9 48.2,69.1 51.8,71.2 54.9,72.8 55.2,75" fill="#886aae" stroke="#624b74" stroke-width="0.9" stroke-linejoin="round"></polygon><polygon points="45.1,45.2 48.3,46.2 51.4,47.9 54.6,49.8 58.4,52.1 61.6,53.5 64.6,54.8 67.9,56.2 71.7,58.4 68.2,59.9 64.8,61.7 61.6,63.3 58.6,64.6 55.6,66.1 52.4,64.5 48.9,62.9 45.1,61.7 42.3,59.7 39,57.7 35.4,55.8 31.7,54.7 28.8,53.3 31.5,51.6 34.4,49.8 37.8,48.3 41.5,46.9" fill="#ab8fd0" stroke="#755f86" stroke-width="0.9" stroke-linejoin="round"></polygon><polygon points="71.6,63.2 68.5,65 65.4,66.9 61.9,68.4 58.3,69.8 54.9,71.6 55.2,68.9 55.6,66.1 58.6,64.6 61.6,63.3 64.8,61.7 68.2,59.9 71.7,58.4 71.5,60.9" fill="#8b72a7" stroke="#644f70" stroke-width="0.9" stroke-linejoin="round"></polygon><polygon points="54.9,71.6 52.1,69.8 48.6,68 45.1,66 41.6,64.6 38.8,63 35.4,61.4 31.8,59.5 28.4,57.8 28.7,55.7 28.8,53.3 31.7,54.7 35.4,55.8 39,57.7 42.3,59.7 45.1,61.7 48.9,62.9 52.4,64.5 55.6,66.1 55.2,68.9" fill="#a084c3" stroke="#6f597f" stroke-width="0.9" stroke-linejoin="round"></polygon><polygon points="27.7,48.7 28,45.6 28.9,42.4 30.1,39.6 31.2,37.4 32.5,36 33.9,35.5 37.2,36.2 40.7,37.2 44.3,37.9 48.5,38.9 51.9,40 55.3,40.7 58.9,41.4 63.1,41.9 66.6,43.1 70,44.4 71.1,45 71.6,46.4 71.9,48.6 72.1,51.1 71.7,53.8 70.5,56.7 69,59.2 67.5,60.9 66.1,61.5 62.2,60.4 59,59.5 55.4,58.4 51.6,58 47.6,57.5 44.4,56.4 40.9,55.2 37.1,54 33.1,53.7 29.8,53.2 28.8,52.6 28,51.1" fill="#7a5aa8" stroke="#5b4270" stroke-width="0.9" stroke-linejoin="round"></polygon><polygon points="30.5,42.2 30.7,40.9 30.9,39.7 31.3,38.7 31.8,37.9 32.2,37.3 32.8,37.1 36.2,37.8 39.6,39.1 43.1,39.9 47.3,40.9 50.8,41.6 54.2,42.4 57.7,43.2 61.9,43.8 65.4,45 68.8,46 69.3,46.3 69.5,46.9 69.6,47.7 69.5,48.7 69.3,49.8 68.9,50.8 68.5,51.7 68,52.3 67.4,52.5 64.1,51.9 60.6,51.6 56.8,50.5 52.7,49 49.4,48.2 45.9,47.5 42.1,47.2 38,46.1 34.6,44.9 31.1,44 30.6,43.8 30.5,43.1" fill="#8f73b3"></polygon><polygon points="63.9,56.8 64.6,54 65.5,51 66.3,48.3 67.4,46.2 68.8,44.8 70,44.4 71.1,45 71.6,46.4 71.9,48.6 72.1,51.1 71.7,53.8 70.5,56.7 69,59.2 67.5,60.9 66.1,61.5 65,60.9 64.1,59.2" fill="#c3aee0" stroke="#83708f" stroke-width="0.8" stroke-linejoin="round"></polygon><polygon points="65.5,55 65.9,53.4 66.4,51.5 67.1,49.8 67.8,48.5 68.6,47.7 69.3,47.4 69.8,47.7 70.3,48.7 70.5,50 70.6,51.6 70.2,53.2 69.6,54.9 68.7,56.4 67.7,57.3 66.8,57.7 66,57.4 65.6,56.5" fill="none" stroke="#a995c0" stroke-width="1"></polygon><polygon points="66.9,53.7 67.1,52.8 67.3,51.9 67.6,51.2 68,50.5 68.4,50 68.7,50 69.1,50.1 69.3,50.6 69.3,51.2 69.4,51.9 69.2,52.7 68.8,53.6 68.4,54.2 67.9,54.6 67.5,54.8 67.1,54.7 67,54.3" fill="none" stroke="#a995c0" stroke-width=".9"></polygon><polygon points="67.7,52.8 67.9,52.5 67.9,52.2 68,51.9 68.2,51.7 68.3,51.6 68.4,51.6 68.5,51.6 68.6,51.7 68.6,51.9 68.6,52.2 68.5,52.5 68.4,52.8 68.2,52.9 68.1,53.1 67.9,53.1 67.8,53.1 67.8,53" fill="#9885aa"></polygon></svg>