<svg xmlns="http://www.w3.org/2000/svg" viewBox="0 0 100 100" xmlns:c2pa="http://c2pa.org/manifest"><metadata><c2pa:manifest>AAAWgmp1bWIAAAAeanVtZGMycGEAEQAQgAAAqgA4m3EDYzJwYQAAABZcanVtYgAAAEdqdW1kYzJtYQARABCAAACqADibcQN1cm46YzJwYTpkZjRmYTZmZS0wNGMzLTQ1YjAtODNlMy05MWFmZDRkODk0YmQAAAADl2p1bWIAAAApanVtZGMyYXMAEQAQgAAAqgA4m3EDYzJwYS5hc3NlcnRpb25zAAAAALxqdW1iAAAARGp1bWRjYm9yABEAEIAAAKoAOJtxE2MycGEuaW5ncmVkaWVudC52MwAAAAAYYzJzaE/RdILlNUIVGxZ75YKx0lAAAABwY2JvcqNpZGM6Zm9ybWF0bWltYWdlL3N2Zyt4bWxqaW5zdGFuY2VJRHgseG1wOmlpZDoyMTA4NjNhMy1iODg3LTQzNmMtYjFlOC1kZTBmN2RhMTljNzhscmVsYXRpb25zaGlwaHBhcmVudE9mAAAB4mp1bWIAAABBanVtZGNib3IAEQAQgAAAqgA4m3ETYzJwYS5hY3Rpb25zLnYyAAAAABhjMnNobb1d3lqmiBfLKOvRplQpWgAAAZljYm9yomdhY3Rpb25zgqJmYWN0aW9ua2MycGEub3BlbmVkanBhcmFtZXRlcnOha2luZ3JlZGllbnRzgaJjdXJseC1zZWxmI2p1bWJmPWMycGEuYXNzZXJ0aW9ucy9jMnBhLmluZ3JlZGllbnQudjNkaGFzaFggBGbLRSBkGfoByqXXK7l4nPIppyM1vbboA1e3iH296nukZmFjdGlvbngdY29tLmFudGhyb3BpYy5jbGF1ZGUucHJvdmlkZWRqcGFyYW1ldGVyc6F4H2NvbS5hbnRocm9waWMub3JpZ2luLWNvbmZpZGVuY2VndW5rbm93bmtkZXNjcmlwdGlvbnhmQ2xhdWRlIHByb3ZpZGVkIHRoaXMgZmlsZSBhdCB0aGUgcmVxdWVzdCBvZiBhIHVzZXIgYW5kIG1heSBoYXZlIGNyZWF0ZWQgb3IgbW9kaWZpZWQgdGhlIGZpbGUgY29udGVudHMubXNvZnR3YXJlQWdlbnShZG5hbWVmQ2xhdWRlcmFsbEFjdGlvbnNJbmNsdWRlZPUAAADIanVtYgAAAEBqdW1kY2JvcgARABCAAACqADibcRNjMnBhLmhhc2guZGF0YQAAAAAYYzJzaCOidlHDzoJIedybtXongtYAAACAY2JvcqVjYWxnZnNoYTI1NmNwYWRNAAAAAAAAAAAAAAAAAGRoYXNoWCCDuBH+lcv63tV55NrBRO/rFfHmsFqTn3d+uz+RVyODQGRuYW1lbmp1bWJmIG1hbmlmZXN0amV4Y2x1c2lvbnOBomVzdGFydBh9Zmxlbmd0aBkeBAAAAj5qdW1iAAAAJ2p1bWRjMmNsABEAEIAAAKoAOJtxA2MycGEuY2xhaW0udjIAAAACD2Nib3KlY2FsZ2ZzaGEyNTZpc2lnbmF0dXJleE1zZWxmI2p1bWJmPS9jMnBhL3VybjpjMnBhOmRmNGZhNmZlLTA0YzMtNDViMC04M2UzLTkxYWZkNGQ4OTRiZC9jMnBhLnNpZ25hdHVyZWppbnN0YW5jZUlEeCx4bXA6aWlkOjc4ZTg0NjNkLTQ1ZDEtNGVmNy1hMTNhLTNjZTJlNmJkNzdiZHJjcmVhdGVkX2Fzc2VydGlvbnODomN1cmx4LXNlbGYjanVtYmY9YzJwYS5hc3NlcnRpb25zL2MycGEuaW5ncmVkaWVudC52M2RoYXNoWCAEZstFIGQZ+gHKpdcruXic8imnIzW9tugDV7eIfb3qe6JjdXJseCpzZWxmI2p1bWJmPWMycGEuYXNzZXJ0aW9ucy9jMnBhLmFjdGlvbnMudjJkaGFzaFgg5vaMJLtqYpJEGEM+tJZkzeNbiG5JtYpLws/7xuFEMbuiY3VybHgpc2VsZiNqdW1iZj1jMnBhLmFzc2VydGlvbnMvYzJwYS5oYXNoLmRhdGFkaGFzaFgguLGDuOHkB37t+Eg+Tlt/wcq99ANxWqmfXy6vOiyhOp10Y2xhaW1fZ2VuZXJhdG9yX2luZm+jZG5hbWVvQW50aHJvcGljIEZpbGVzZ3ZlcnNpb25lMS4wLjBrc3BlY1ZlcnNpb25lMi40LjAAABA4anVtYgAAAChqdW1kYzJjcwARABCAAACqADibcQNjMnBhLnNpZ25hdHVyZQAAABAIY2JvctKEWQISogEmGCFZAgowggIGMIIBjaADAgECAhRA5aAK7sI50L64g/oGQgU9Z1UTADAKBggqhkjOPQQDAzBJMRcwFQYDVQQKEw5BbnRocm9waWMsIFBCQzEuMCwGA1UEAxMlQW50aHJvcGljIENvbnRlbnQgQ3JlZGVudGlhbHMgUm9vdCBDQTAeFw0yNjA4MDcxODQzNTZaFw0yODA4MDYxOTQzNTZaMEQxFzAVBgNVBAoTDkFudGhyb3BpYywgUEJDMSkwJwYDVQQDEyBBbnRocm9waWMgQ2xhdWRlIENvbnRlbnQgU2lnbmluZzBZMBMGByqGSM49AgEGCCqGSM49AwEHA0IABJh6CmvLUBgFFNU0vUKlOVtE6djd17L5SuwX0LemFisBM3dkd/3cyjxFA3Qo5S46fX0/ihY0VZ7mfb9KF703t5OjWDBWMA4GA1UdDwEB/wQEAwIHgDAVBgNVHSUEDjAMBgorBgEEAYPoXgIBMAwGA1UdEwEB/wQCMAAwHwYDVR0jBBgwFoAUzlHiBIFOZFsj+OPEz5o+nMHXXMIwCgYIKoZIzj0EAwMDZwAwZAIwMXMdFJ4BetLLVY7ORuE9noqbbAZOZn/aArXyTwFAZfKrPzxF2vPoJNf1+UCdg1XGAjBwX1zd9WGqYkqmL5SFqw1QySjr1zJfpJM9+1rdDwSPLMOPOjKuiXjoU/pUUeG9RwmhY3BhZFkNngAAAAAAAAAAAAAAAAAAAAAAAAAAAAAAAAAAAAAAAAAAAAAAAAAAAAAAAAAAAAAAAAAAAAAAAAAAAAAAAAAAAAAAAAAAAAAAAAAAAAAAAAAAAAAAAAAAAAAAAAAAAAAAAAAAAAAAAAAAAAAAAAAAAAAAAAAAAAAAAAAAAAAAAAAAAAAAAAAAAAAAAAAAAAAAAAAAAAAAAAAAAAAAAAAAAAAAAAAAAAAAAAAAAAAAAAAAAAAAAAAAAAAAAAAAAAAAAAAAAAAAAAAAAAAAAAAAAAAAAAAAAAAAAAAAAAAAAAAAAAAAAAAAAAAAAAAAAAAAAAAAAAAAAAAAAAAAAAAAAAAAAAAAAAAAAAAAAAAAAAAAAAAAAAAAAAAAAAAAAAAAAAAAAAAAAAAAAAAAAAAAAAAAAAAAAAAAAAAAAAAAAAAAAAAAAAAAAAAAAAAAAAAAAAAAAAAAAAAAAAAAAAAAAAAAAAAAAAAAAAAAAAAAAAAAAAAAAAAAAAAAAAAAAAAAAAAAAAAAAAAAAAAAAAAAAAAAAAAAAAAAAAAAAAAAAAAAAAAAAAAAAAAAAAAAAAAAAAAAAAAAAAAAAAAAAAAAAAAAAAAAAAAAAAAAAAAAAAAAAAAAAAAAAAAAAAAAAAAAAAAAAAAAAAAAAAAAAAAAAAAAAAAAAAAAAAAAAAAAAAAAAAAAAAAAAAAAAAAAAAAAAAAAAAAAAAAAAAAAAAAAAAAAAAAAAAAAAAAAAAAAAAAAAAAAAAAAAAAAAAAAAAAAAAAAAAAAAAAAAAAAAAAAAAAAAAAAAAAAAAAAAAAAAAAAAAAAAAAAAAAAAAAAAAAAAAAAAAAAAAAAAAAAAAAAAAAAAAAAAAAAAAAAAAAAAAAAAAAAAAAAAAAAAAAAAAAAAAAAAAAAAAAAAAAAAAAAAAAAAAAAAAAAAAAAAAAAAAAAAAAAAAAAAAAAAAAAAAAAAAAAAAAAAAAAAAAAAAAAAAAAAAAAAAAAAAAAAAAAAAAAAAAAAAAAAAAAAAAAAAAAAAAAAAAAAAAAAAAAAAAAAAAAAAAAAAAAAAAAAAAAAAAAAAAAAAAAAAAAAAAAAAAAAAAAAAAAAAAAAAAAAAAAAAAAAAAAAAAAAAAAAAAAAAAAAAAAAAAAAAAAAAAAAAAAAAAAAAAAAAAAAAAAAAAAAAAAAAAAAAAAAAAAAAAAAAAAAAAAAAAAAAAAAAAAAAAAAAAAAAAAAAAAAAAAAAAAAAAAAAAAAAAAAAAAAAAAAAAAAAAAAAAAAAAAAAAAAAAAAAAAAAAAAAAAAAAAAAAAAAAAAAAAAAAAAAAAAAAAAAAAAAAAAAAAAAAAAAAAAAAAAAAAAAAAAAAAAAAAAAAAAAAAAAAAAAAAAAAAAAAAAAAAAAAAAAAAAAAAAAAAAAAAAAAAAAAAAAAAAAAAAAAAAAAAAAAAAAAAAAAAAAAAAAAAAAAAAAAAAAAAAAAAAAAAAAAAAAAAAAAAAAAAAAAAAAAAAAAAAAAAAAAAAAAAAAAAAAAAAAAAAAAAAAAAAAAAAAAAAAAAAAAAAAAAAAAAAAAAAAAAAAAAAAAAAAAAAAAAAAAAAAAAAAAAAAAAAAAAAAAAAAAAAAAAAAAAAAAAAAAAAAAAAAAAAAAAAAAAAAAAAAAAAAAAAAAAAAAAAAAAAAAAAAAAAAAAAAAAAAAAAAAAAAAAAAAAAAAAAAAAAAAAAAAAAAAAAAAAAAAAAAAAAAAAAAAAAAAAAAAAAAAAAAAAAAAAAAAAAAAAAAAAAAAAAAAAAAAAAAAAAAAAAAAAAAAAAAAAAAAAAAAAAAAAAAAAAAAAAAAAAAAAAAAAAAAAAAAAAAAAAAAAAAAAAAAAAAAAAAAAAAAAAAAAAAAAAAAAAAAAAAAAAAAAAAAAAAAAAAAAAAAAAAAAAAAAAAAAAAAAAAAAAAAAAAAAAAAAAAAAAAAAAAAAAAAAAAAAAAAAAAAAAAAAAAAAAAAAAAAAAAAAAAAAAAAAAAAAAAAAAAAAAAAAAAAAAAAAAAAAAAAAAAAAAAAAAAAAAAAAAAAAAAAAAAAAAAAAAAAAAAAAAAAAAAAAAAAAAAAAAAAAAAAAAAAAAAAAAAAAAAAAAAAAAAAAAAAAAAAAAAAAAAAAAAAAAAAAAAAAAAAAAAAAAAAAAAAAAAAAAAAAAAAAAAAAAAAAAAAAAAAAAAAAAAAAAAAAAAAAAAAAAAAAAAAAAAAAAAAAAAAAAAAAAAAAAAAAAAAAAAAAAAAAAAAAAAAAAAAAAAAAAAAAAAAAAAAAAAAAAAAAAAAAAAAAAAAAAAAAAAAAAAAAAAAAAAAAAAAAAAAAAAAAAAAAAAAAAAAAAAAAAAAAAAAAAAAAAAAAAAAAAAAAAAAAAAAAAAAAAAAAAAAAAAAAAAAAAAAAAAAAAAAAAAAAAAAAAAAAAAAAAAAAAAAAAAAAAAAAAAAAAAAAAAAAAAAAAAAAAAAAAAAAAAAAAAAAAAAAAAAAAAAAAAAAAAAAAAAAAAAAAAAAAAAAAAAAAAAAAAAAAAAAAAAAAAAAAAAAAAAAAAAAAAAAAAAAAAAAAAAAAAAAAAAAAAAAAAAAAAAAAAAAAAAAAAAAAAAAAAAAAAAAAAAAAAAAAAAAAAAAAAAAAAAAAAAAAAAAAAAAAAAAAAAAAAAAAAAAAAAAAAAAAAAAAAAAAAAAAAAAAAAAAAAAAAAAAAAAAAAAAAAAAAAAAAAAAAAAAAAAAAAAAAAAAAAAAAAAAAAAAAAAAAAAAAAAAAAAAAAAAAAAAAAAAAAAAAAAAAAAAAAAAAAAAAAAAAAAAAAAAAAAAAAAAAAAAAAAAAAAAAAAAAAAAAAAAAAAAAAAAAAAAAAAAAAAAAAAAAAAAAAAAAAAAAAAAAAAAAAAAAAAAAAAAAAAAAAAAAAAAAAAAAAAAAAAAAAAAAAAAAAAAAAAAAAAAAAAAAAAAAAAAAAAAAAAAAAAAAAAAAAAAAAAAAAAAAAAAAAAAAAAAAAAAAAAAAAAAAAAAAAAAAAAAAAAAAAAAAAAAAAAAAAAAAAAAAAAAAAAAAAAAAAAAAAAAAAAAAAAAAAAAAAAAAAAAAAAAAAAAAAAAAAAAAAAAAAAAAAAAAAAAAAAAAAAAAAAAAAAAAAAAAAAAAAAAAAAAAAAAAAAAAAAAAAAAAAAAAAAAAAAAAAAAAAAAAAAAAAAAAAAAAAAAAAAAAAAAAAAAAAAAAAAAAAAAAAAAAAAAAAAAAAAAAAAAAAAAAAAAAAAAAAAAAAAAAAAAAAAAAAAAAAAAAAAAAAAAAAAAAAAAAAAAAAAAAAAAAAAAAAAAAAAAAAAAAAAAAAAAAAAAAAAAAAAAAAAAAAAAAAAAAAAAAAAAAAAAAAAAAAAAAAAAAAAAAAAAAAAAAAAAAAAAAAAAAAAAAAAAAAAAAAAAAAAAAAAAAAAAAAAAAAAAAAAAAAAAAAAAAAAAAAAAAAAAAAAAAAAAAAAAAAAAAAAAAAAAAAAAAAAAAAAAAAAAAAAAAAAAAAAAAAAAAAAAAAAAAAAAAAAAAAAAAAAAAAAAAAAAAAAAAAAAAAAAAAAAAAAAAAAAAAAAAAAAAAAAAAAAAAAAAAAAAAAAAAAAAAAAAAAAAAAAAAAAAAAAAAAAAAAAAAAAAAAAAAAAAAAAAAAAAAAAAAAAAAAAAAAAAAAAAAAAAAAAAAAAAAAAAAAAAAAAAAAAAAAAAAAAAAAAAAAAAAAAAAAAAAAAAAAAAAAAAAAAAAAAAAAAAAAAAAAAAAAAAAAAAAAAAAAAAAAAAAAAAAAAAAAAAAAAAAAAAAAAAAAAAAAAAAAAAAAAAAAAAAAAAAAAAAAAAAAAAAAAAAAAAAAAAAAAAAAAAAAAAAAAAAAAAAAAAAAAAAAAAAAAAAAAAAAAAAAAAAAAAAAAAAAAAAAAAAAAAAAAAAAAAAAAAAAAAAAAAAAAAAAAAAAAAAAAAAAAAAAAAAAAAAAAAAAAAAAAAAAAAAAAAAAAAAAAAAAAAAAAAAAAAAAAAAAAAAAAAAAAAAAAAAAAAAAAAAAAAAAAAAAAAAAAAAAAAAAAAAAAAAAAAAAAAAAAAAAAAAAAAAAAAAAAAAAAAAAAAAAAAAAAAAAAAAAAAAAAAAAAAAAAAAAAAAAAAAAAAAAAAAAAAAAAAAAAAAAAAAAAAAAAAAAAAAAAAAAAAAAAAAAAAAAAAAAAAAAAAAAAAAAAAAAAAAAAAAAAAAAAAAAAAAAAAAAAAAAAAAAAAAAAAAAAAAAAAAAAAAAAAAAAAAAAAAAAAAAAAAAAAAAAAAAAAAAAAAAAAAAAAAAAAAAAAAAAAAAAAAAAAAAAAAAAAAAAAAAAAAAAAAAAAAAAAAAAAAAAAAAAAAAAAAAAAAAAAAAAAAAAAAAAAAAAAAAAAAAAAAAAAAAAAAAAAAAAAAAAAAAAAAAAAAAAAAAAAAAAAAAAAAAAAAAAAAAAAAAAAAAAAAAAAAAAAAAAAAAAAAAAAAAAAAAAAAAAAAAAAAAAAAAAAAAAAAAAAAAAAAAAAAAAAAAAAAAAAAAAAAAAAAAAAAAAAAAAAAAAAAAAAAAAAAAAAAAAAAAAAAAAAAAAAAAAAAAAAAAAAAAAAAAAAAAAAAAAAAAAAAAAAAAAAAAAAAAAAAAAAAAAAAAAAAAAPZYQIQChdZ1uyX0V+cjUB3l3SWhN9VIY57t782f7OomIp6hx9Et7mn4/rZky/qnvkmPAdtSpdeHrgpeYlh2f0WiDuQ=</c2pa:manifest></metadata><polygon points="89,87.8 88.9,88.6 88.4,89.5 87.5,90.3 86.2,91.1 84.4,91.7 82.4,92.3 80.1,92.9 77.7,93.7 75.1,94.6 72.5,95.3 69.8,95.5 66.5,95.5 62.8,95.7 59.4,96.1 55.9,96.1 52.5,95.8 48.8,96.1 44.6,96.5 41.2,96.4 37.9,95.8 34.8,95.3 31.5,94.8 28.1,94.3 25.5,94 23.2,93.3 21,92.6 19.2,92 17.4,91.4 15.7,90.5 14.5,89.6 13.8,88.6 13.5,87.7 13.6,86.8 14,85.9 14.8,85 15.9,84.1 17.3,83.4 19,82.7 21.1,82.1 23.6,81.5 26.2,80.9 28.7,80.3 31.2,80 34.3,79.8 37.7,79.6 41.5,79.3 45.4,78.9 48.7,78.6 52.1,78.6 55.9,78.6 59.7,78.6 63.3,78.9 66.1,79.8 69.2,80.3 72.4,80.3 75.5,80.6 78.3,81 80.4,81.6 82.2,82.5 84.1,83.6 85.8,84.6 87.1,85.4 88,86.1 88.7,86.9" fill="rgba(59,42,46,.28)"></polygon><polygon points="92.2,85.3 92.1,86 91.7,86.7 90.9,87.4 89.8,88.2 88.3,88.9 86.5,89.5 84.3,90 81.9,90.4 79.2,90.9 76.4,91.6 73.7,92.1 70.7,92.2 67.1,92.1 63.5,92.3 60,92.8 56.6,93 53.3,93.1 49.1,93.3 45,93.5 41.4,93.5 37.9,93 34.2,92.3 30.1,92.2 26.7,92.4 23.7,92 20.8,91.6 18,91.2 14.9,90.7 12.4,90.1 10.4,89.5 8.7,88.9 7.2,88.2 6,87.4 5.1,86.8 4.5,86.2 4.1,85.6 4,85.1 4.4,84.5 5.1,83.9 6.2,83.3 7.6,82.8 9.3,82.1 11.1,81.3 13,80.5 15.3,79.8 17.8,79.4 20.5,79.2 23.7,78.6 27.3,77.9 30.5,77.6 33.7,77.9 37.5,78 41.4,77.6 45.7,77.5 49.2,77.6 52.6,77.4 56.5,77.3 60.4,77.3 64,77.8 66.9,78.6 70.2,79 73.5,78.9 76.7,79.1 79.6,79.6 81.8,80.1 83.8,80.7 85.9,81.4 87.7,82.2 89.2,82.8 90.5,83.4 91.4,84 92,84.6" fill="none" stroke="#e9f7f8" stroke-width=".8" opacity=".6"></polygon><path d="M15.1,64.2 L74.3,64.2 C80.8,64 87.9,59.4 90,55.5 C87.6,73 76.9,85.9 61,87.3 L26.1,87.6 C17.1,83.6 13,75.2 12.8,64.1 Z" fill="#8f5f38" stroke="#664433" stroke-width="1" stroke-linejoin="round"></path><path d="M13.8,75.3 L84.7,75.4 C79,83.6 70,87.3 61,87.3 L26.1,87.6 C18.2,84.6 14.6,80.3 13.8,75.3 Z" fill="#764e35"></path><polyline fill="none" points="15.3,68.4 19.2,68.6 22.7,68.7 26.7,68.6 30.7,68.8 34.7,68.9 38.1,68.5 41.8,68.2 45.9,68.5 50,68.7 53.8,68.6 57.4,68.7 61.6,68.8 65.7,68.7 69.7,68.5 73.2,68.2 77,68.4 81.1,68.8" stroke="#a88160" stroke-width="1.9800000000000002" stroke-linecap="round"></polyline><polyline fill="none" points="14,74.1 17.5,74.4 21.3,74.4 25.3,74.1 29.6,73.9 33.4,73.9 36.9,74.1 40.9,74.1 44.9,74 48.9,74.4 52.2,74.5 56,74 60,73.8 64,74 67.7,74 71.3,74 75.5,74.2 79.5,74.3 83.5,74.3" stroke="#c2493a" stroke-width="2.4200000000000004" stroke-linecap="round"></polyline><path d="M12.8,64.1 L12.5,55.4 L28.4,55.6 L27.9,64.2 Z" fill="#a88160" stroke="#664433" stroke-width="0.7" stroke-linejoin="round"></path><polyline fill="none" points="50.4,64.1 50.3,60.4 49.9,56.7 49.8,52.5 50.3,48.5 50.3,44.6 50.2,41.2 50.4,37.3 50.4,33.3 50.2,29.5 49.9,25.9 49.9,22.3 50.2,18.1" stroke="#6e4a33" stroke-width="2.8600000000000003" stroke-linecap="round"></polyline><path d="M32.6,24.5 Q49.9,21.5 67.7,24.7 L68.9,56.9 Q50.4,61.1 31.4,57.1 Z" fill="#f4ecda" stroke="#8e8075" stroke-width="0.7" stroke-linejoin="round"></path><polyline fill="none" points="53.5,25.5 53.9,29.1 54.1,32.9 53.8,36.9 53.5,40.3 53.6,43.7 53.6,47.3 53.5,51.1 53.6,55 53.8,58.3" stroke="#ddd4c5" stroke-width="1.7600000000000002" stroke-linecap="round"></polyline><polyline fill="none" points="33.3,36.5 36.8,36.4 40.5,36.6 44.1,36.4 48.3,36.4 52.3,36.9 55.9,37 59.6,36.6 63.5,36.4 67.7,36.5" stroke="#c2493a" stroke-width="5.720000000000001" stroke-linecap="round"></polyline><polyline fill="none" points="33,47.8 36.5,47.9 40.7,48 44.8,47.8 48.5,47.5 52.1,47.5 55.8,47.7 60,48 63.7,48 67.2,47.8" stroke="#c2493a" stroke-width="5.720000000000001" stroke-linecap="round"></polyline><polyline fill="none" points="31.3,24.3 35,24.7 39,24.6 42.8,24.6 46.2,24.8 49.9,24.9 53.8,24.6 57.9,24.4 61.5,24.3 65.1,24.5 69.1,24.7" stroke="#6e4a33" stroke-width="1.9800000000000002" stroke-linecap="round"></polyline><path d="M50.2,18.1 L65.6,21.4 L49.9,25.2 Z" fill="#c2493a" stroke="#823834" stroke-width="0.6" stroke-linejoin="round"></path><path d="M49.9,22.8 L87.7,55.5" fill="none" stroke="#8a6445" stroke-width=".6"></path><path d="M74.4,37.8 L88.5,54.4 L72.5,55.3 Z" fill="#eae2d1" stroke="#8e8075" stroke-width="0.6" stroke-linejoin="round"></path></svg>